<svg width="45" height="45" viewBox="0 0 45 45" fill="none" xmlns="http://www.w3.org/2000/svg">
<circle cx="22.5" cy="22.5" r="22.5" fill="#50DD89" fill-opacity="0.1"/>
<path fill-rule="evenodd" clip-rule="evenodd" d="M26.2043 16C27.21 16 28.1775 16.3975 28.8892 17.1107C29.6017 17.8225 30 18.7825 30 19.7875V25.7125C30 27.805 28.2975 29.5 26.2043 29.5H18.795C16.7018 29.5 15 27.805 15 25.7125V19.7875C15 17.695 16.6942 16 18.795 16H26.2043ZM27.3975 20.905L27.4575 20.845C27.6367 20.6275 27.6367 20.3125 27.4492 20.095C27.345 19.9833 27.2017 19.915 27.0525 19.9C26.895 19.8918 26.745 19.945 26.6317 20.05L23.25 22.75C22.815 23.1108 22.1917 23.1108 21.75 22.75L18.375 20.05C18.1417 19.8775 17.8192 19.9 17.625 20.1025C17.4225 20.305 17.4 20.6275 17.5717 20.8525L17.67 20.95L21.0825 23.6125C21.5025 23.9425 22.0117 24.1225 22.545 24.1225C23.0767 24.1225 23.595 23.9425 24.0142 23.6125L27.3975 20.905Z" fill="#50DD89"/>
</svg>
