<svg width="45" height="45" viewBox="0 0 45 45" fill="none" xmlns="http://www.w3.org/2000/svg">
<circle cx="22.5" cy="22.5" r="22.5" fill="#49B1F7" fill-opacity="0.1"/>
<path fill-rule="evenodd" clip-rule="evenodd" d="M22.5 30C18.36 30 15 26.6475 15 22.5C15 18.36 18.36 15 22.5 15C26.6475 15 30 18.36 30 22.5C30 26.6475 26.6475 30 22.5 30ZM24.8925 25.2825C24.9825 25.335 25.08 25.365 25.185 25.365C25.3725 25.365 25.56 25.2675 25.665 25.0875C25.8225 24.825 25.74 24.48 25.47 24.315L22.8 22.725V19.26C22.8 18.945 22.545 18.6975 22.2375 18.6975C21.93 18.6975 21.675 18.945 21.675 19.26V23.0475C21.675 23.2425 21.78 23.4225 21.9525 23.5275L24.8925 25.2825Z" fill="#49B1F7"/>
</svg>
